<svg id="visual" viewBox="0 0 900 450" width="900" height="450" xmlns="http://www.w3.org/2000/svg" xmlns:xlink="http://www.w3.org/1999/xlink" version="1.1"><rect x="0" y="0" width="900" height="450" fill="#fff"></rect><path d="M0 321L16.7 326C33.3 331 66.7 341 100 341.8C133.3 342.7 166.7 334.3 200 327.5C233.3 320.7 266.7 315.3 300 309.5C333.3 303.7 366.7 297.3 400 301.7C433.3 306 466.7 321 500 330.5C533.3 340 566.7 344 600 338C633.3 332 666.7 316 700 311.8C733.3 307.7 766.7 315.3 800 316.8C833.3 318.3 866.7 313.7 883.3 311.3L900 309L900 0L883.3 0C866.7 0 833.3 0 800 0C766.7 0 733.3 0 700 0C666.7 0 633.3 0 600 0C566.7 0 533.3 0 500 0C466.7 0 433.3 0 400 0C366.7 0 333.3 0 300 0C266.7 0 233.3 0 200 0C166.7 0 133.3 0 100 0C66.7 0 33.3 0 16.7 0L0 0Z" fill="#8467da"></path><path d="M0 190L16.7 195.3C33.3 200.7 66.7 211.3 100 210.7C133.3 210 166.7 198 200 196C233.3 194 266.7 202 300 212.3C333.3 222.7 366.7 235.3 400 237.2C433.3 239 466.7 230 500 228.7C533.3 227.3 566.7 233.7 600 228.5C633.3 223.3 666.7 206.7 700 200.5C733.3 194.3 766.7 198.7 800 201C833.3 203.3 866.7 203.7 883.3 203.8L900 204L900 0L883.3 0C866.7 0 833.3 0 800 0C766.7 0 733.3 0 700 0C666.7 0 633.3 0 600 0C566.7 0 533.3 0 500 0C466.7 0 433.3 0 400 0C366.7 0 333.3 0 300 0C266.7 0 233.3 0 200 0C166.7 0 133.3 0 100 0C66.7 0 33.3 0 16.7 0L0 0Z" fill="#ab90e9"></path><path d="M0 140L16.7 132.5C33.3 125 66.7 110 100 100.3C133.3 90.7 166.7 86.3 200 88.3C233.3 90.3 266.7 98.7 300 101.5C333.3 104.3 366.7 101.7 400 103.7C433.3 105.7 466.7 112.3 500 116.3C533.3 120.3 566.7 121.7 600 122.3C633.3 123 666.7 123 700 117.8C733.3 112.7 766.7 102.3 800 96.7C833.3 91 866.7 90 883.3 89.5L900 89L900 0L883.3 0C866.7 0 833.3 0 800 0C766.7 0 733.3 0 700 0C666.7 0 633.3 0 600 0C566.7 0 533.3 0 500 0C466.7 0 433.3 0 400 0C366.7 0 333.3 0 300 0C266.7 0 233.3 0 200 0C166.7 0 133.3 0 100 0C66.7 0 33.3 0 16.7 0L0 0Z" fill="#d0bbf8"></path></svg>