<svg id="visual" viewBox="0 0 675 900" width="675" height="900" xmlns="http://www.w3.org/2000/svg" xmlns:xlink="http://www.w3.org/1999/xlink" version="1.1"><rect x="0" y="0" width="675" height="900" fill="#fff"></rect><path d="M0 672L18.8 676C37.7 680 75.3 688 112.8 684.8C150.3 681.7 187.7 667.3 225.2 649.8C262.7 632.3 300.3 611.7 337.8 617.8C375.3 624 412.7 657 450.2 666.8C487.7 676.7 525.3 663.3 562.8 664.5C600.3 665.7 637.7 681.3 656.3 689.2L675 697L675 0L656.3 0C637.7 0 600.3 0 562.8 0C525.3 0 487.7 0 450.2 0C412.7 0 375.3 0 337.8 0C300.3 0 262.7 0 225.2 0C187.7 0 150.3 0 112.8 0C75.3 0 37.7 0 18.8 0L0 0Z" fill="#8467da"></path><path d="M0 483L18.8 485.8C37.7 488.7 75.3 494.3 112.8 482.8C150.3 471.3 187.7 442.7 225.2 425.8C262.7 409 300.3 404 337.8 402C375.3 400 412.7 401 450.2 406.2C487.7 411.3 525.3 420.7 562.8 416.8C600.3 413 637.7 396 656.3 387.5L675 379L675 0L656.3 0C637.7 0 600.3 0 562.8 0C525.3 0 487.7 0 450.2 0C412.7 0 375.3 0 337.8 0C300.3 0 262.7 0 225.2 0C187.7 0 150.3 0 112.8 0C75.3 0 37.7 0 18.8 0L0 0Z" fill="#ab90e9"></path><path d="M0 266L18.8 263.2C37.7 260.3 75.3 254.7 112.8 237.2C150.3 219.7 187.7 190.3 225.2 195C262.7 199.7 300.3 238.3 337.8 252.3C375.3 266.3 412.7 255.7 450.2 244.8C487.7 234 525.3 223 562.8 221.3C600.3 219.7 637.7 227.3 656.3 231.2L675 235L675 0L656.3 0C637.7 0 600.3 0 562.8 0C525.3 0 487.7 0 450.2 0C412.7 0 375.3 0 337.8 0C300.3 0 262.7 0 225.2 0C187.7 0 150.3 0 112.8 0C75.3 0 37.7 0 18.8 0L0 0Z" fill="#d0bbf8"></path></svg>